<svg id="Layer_1" data-name="Layer 1" xmlns="http://www.w3.org/2000/svg" xmlns:xlink="http://www.w3.org/1999/xlink" viewBox="0 0 557.91 339.04"><defs><style>.cls-1{fill:#29ffdb;}.cls-2{fill:#17d0ff;}.cls-3{fill:url(#linear-gradient);}.cls-4,.cls-5{font-size:202.67px;font-family:TeluguMN, Telugu MN;}.cls-4{fill:blue;}.cls-5{fill:#0d4768;}</style><linearGradient id="linear-gradient" x1="442.22" y1="386.67" x2="930.61" y2="386.67" gradientUnits="userSpaceOnUse"><stop offset="0" stop-color="#cce0f4"/><stop offset="0.06" stop-color="#c3dcf2"/><stop offset="0.17" stop-color="#a9d2ee"/><stop offset="0.31" stop-color="#80c2e7"/><stop offset="0.46" stop-color="#47acde"/><stop offset="0.57" stop-color="#1e9cd7"/><stop offset="0.87" stop-color="#0075be"/><stop offset="0.99" stop-color="#005b97"/></linearGradient></defs><path class="cls-1" d="M606.3,251.88h7.28V337.5h50.65l-1.35,6.59H606.3Z" transform="translate(-424 -251.88)"/><path class="cls-1" d="M679.59,312c.13,17,8.89,27.53,21.82,27.53,12.66,0,17-7,19.4-12.39h6.87c-2.83,8.7-10,18.58-26.54,18.58-20.48,0-28.43-17.26-28.43-34,0-18.84,9.57-35,29.24-35,20.75,0,27.35,17.52,27.35,29.9,0,1.85,0,3.69-.14,5.41Zm42.7-5.8c-.13-13-7.41-23.32-20.61-23.32-13.88,0-20.21,9.49-21.69,23.32Z" transform="translate(-424 -251.88)"/><path class="cls-1" d="M791.94,331.57a74.27,74.27,0,0,0,.94,12.52h-6.46c-.54-1.58-.95-4.48-1.21-10.15-2.3,4.88-8.22,11.73-22.1,11.73-15.63,0-22.36-9.88-22.36-19.76,0-14.49,11.45-21.08,31.66-21.08h12.8v-6.72c0-6.58-2-15.41-17.38-15.41-13.61,0-15.63,7-17.11,12.38H744c.81-7.24,5.39-18.44,24-18.44,15.36,0,24,6.32,24,20.82Zm-6.6-21.07h-13.2c-15,0-24.25,3.82-24.25,15.15,0,8.29,6.06,14,15.49,14,19.27,0,22-12.52,22-26.74Z" transform="translate(-424 -251.88)"/><path class="cls-1" d="M814.17,294.82c0-5.8,0-11.33-.14-16.6h6.6c.27,2.11.41,10.67.27,12.52,3-6.72,8.49-14.1,22.37-14.1,12,0,22.63,6.59,22.63,24.77v42.68h-6.74V302.46c0-11.72-5-19.36-16.7-19.36-16,0-21.56,13-21.56,27.4v33.59h-6.73Z" transform="translate(-424 -251.88)"/><path class="cls-2" d="M606.3,251.88h7.28V337.5h50.65l-1.35,6.59H606.3Z" transform="translate(-424 -251.88)"/><path class="cls-2" d="M679.59,312c.13,17,8.89,27.53,21.82,27.53,12.66,0,17-7,19.4-12.39h6.87c-2.83,8.7-10,18.58-26.54,18.58-20.48,0-28.43-17.26-28.43-34,0-18.84,9.57-35,29.24-35,20.75,0,27.35,17.52,27.35,29.9,0,1.85,0,3.69-.14,5.41Zm42.7-5.8c-.13-13-7.41-23.32-20.61-23.32-13.88,0-20.21,9.49-21.69,23.32Z" transform="translate(-424 -251.88)"/><path class="cls-2" d="M791.94,331.57a74.27,74.27,0,0,0,.94,12.52h-6.46c-.54-1.58-.95-4.48-1.21-10.15-2.3,4.88-8.22,11.73-22.1,11.73-15.63,0-22.36-9.88-22.36-19.76,0-14.49,11.45-21.08,31.66-21.08h12.8v-6.72c0-6.58-2-15.41-17.38-15.41-13.61,0-15.63,7-17.11,12.38H744c.81-7.24,5.39-18.44,24-18.44,15.36,0,24,6.32,24,20.82Zm-6.6-21.07h-13.2c-15,0-24.25,3.82-24.25,15.15,0,8.29,6.06,14,15.49,14,19.27,0,22-12.52,22-26.74Z" transform="translate(-424 -251.88)"/><path class="cls-2" d="M814.17,294.82c0-5.8,0-11.33-.14-16.6h6.6c.27,2.11.41,10.67.27,12.52,3-6.72,8.49-14.1,22.37-14.1,12,0,22.63,6.59,22.63,24.77v42.68h-6.74V302.46c0-11.72-5-19.36-16.7-19.36-16,0-21.56,13-21.56,27.4v33.59h-6.73Z" transform="translate(-424 -251.88)"/><path class="cls-3" d="M442.22,330.85h22.57V462.07H442.22Z" transform="translate(-424 -251.88)"/><path class="cls-3" d="M572.36,452.28a53.43,53.43,0,0,1-7.69,5A57.44,57.44,0,0,1,556,461a64.31,64.31,0,0,1-9.06,2.37,48.94,48.94,0,0,1-8.9.84A36.19,36.19,0,0,1,521,460.09a45.69,45.69,0,0,1-13.86-11.18,54,54,0,0,1-9.36-16.37,56.86,56.86,0,0,1-3.44-19.75,48.8,48.8,0,0,1,4.3-20,58.54,58.54,0,0,1,11.69-17.27,57.67,57.67,0,0,1,17.25-12.12,49.83,49.83,0,0,1,21.1-4.55,31.54,31.54,0,0,1,13.21,2.57,43.33,43.33,0,0,1,10.47,6.83V314.82l14.48-5.74h6v153H572.36Zm0-59.28a25.31,25.31,0,0,0-2.27-10.83,28,28,0,0,0-5.92-8.42,26.72,26.72,0,0,0-8.25-5.44,23.73,23.73,0,0,0-9.26-1.93,23.45,23.45,0,0,0-11.54,3,29.48,29.48,0,0,0-9.36,8.36,42.94,42.94,0,0,0-6.32,12.87,54.9,54.9,0,0,0-2.33,16.47,62.42,62.42,0,0,0,2.53,18.11,51,51,0,0,0,6.93,14.7,34.67,34.67,0,0,0,10.32,9.89,24,24,0,0,0,12.7,3.62,25.85,25.85,0,0,0,6.53-.85,32.32,32.32,0,0,0,6.23-2.27,36.79,36.79,0,0,0,5.51-3.32,30.31,30.31,0,0,0,4.5-4Z" transform="translate(-424 -251.88)"/><path class="cls-3" d="M672.86,464.25a51,51,0,0,1-19.79-3.86,51.65,51.65,0,0,1-16.14-10.49,49.36,49.36,0,0,1-10.88-15.58,46.13,46.13,0,0,1-4-19.05,67.32,67.32,0,0,1,3.65-22.52A53.31,53.31,0,0,1,636,374.89a47.37,47.37,0,0,1,16-11.77,49.89,49.89,0,0,1,20.9-4.26,48.35,48.35,0,0,1,18.62,3.51,46.57,46.57,0,0,1,14.62,9.4,42.47,42.47,0,0,1,9.51,13.61,39.71,39.71,0,0,1,3.4,16.13H641.89a63.81,63.81,0,0,0,2.68,18.9,47.29,47.29,0,0,0,7.54,15,35.46,35.46,0,0,0,11.54,9.9,30.72,30.72,0,0,0,14.67,3.56,39.36,39.36,0,0,0,12.85-2.12,45.78,45.78,0,0,0,11.19-5.6,39.76,39.76,0,0,0,8.55-7.91,27.51,27.51,0,0,0,5-9.21l6,2.58a46.43,46.43,0,0,1-7.19,14.64,57.77,57.77,0,0,1-11.59,11.93,56.45,56.45,0,0,1-14.42,8.06A44,44,0,0,1,672.86,464.25ZM693.3,393.4a27.24,27.24,0,0,0-2.08-10.69,26.06,26.06,0,0,0-5.71-8.56,27.05,27.05,0,0,0-8.5-5.69,26.18,26.18,0,0,0-10.43-2.08,20.44,20.44,0,0,0-8.9,2,24.64,24.64,0,0,0-7.59,5.64,30.59,30.59,0,0,0-5.52,8.56A31.94,31.94,0,0,0,642,393.3Z" transform="translate(-424 -251.88)"/><path class="cls-3" d="M815.55,462.07a19,19,0,0,1-6.83-5.59,13.12,13.12,0,0,1-2.78-8.26q-3.65,2.67-7.14,5.54a53.2,53.2,0,0,1-7.59,5.2,43.33,43.33,0,0,1-9.11,3.81,40.88,40.88,0,0,1-11.59,1.48,29.68,29.68,0,0,1-11-1.93,24,24,0,0,1-8.3-5.29,23.42,23.42,0,0,1-5.27-8,26.46,26.46,0,0,1-1.87-10,26,26,0,0,1,2.63-11.78,31.33,31.33,0,0,1,7.24-9.35,53.64,53.64,0,0,1,10.67-7.32,103.38,103.38,0,0,1,13-5.74q6.89-2.54,14.17-4.51c4.85-1.32,9.58-2.53,14.17-3.66v-6.33a56.73,56.73,0,0,0-1-11.68,20.13,20.13,0,0,0-3.13-7.67,11.7,11.7,0,0,0-5.42-4.15,22.17,22.17,0,0,0-7.84-1.24,18.89,18.89,0,0,0-8,1.68,21.76,21.76,0,0,0-6.42,4.5,23.41,23.41,0,0,0-4.56,6.63,28.47,28.47,0,0,0-2.37,8.07H748.35A24.42,24.42,0,0,1,753,374.79a33.19,33.19,0,0,1,9.56-8.66,47.87,47.87,0,0,1,13.1-5.39,61.36,61.36,0,0,1,15.24-1.88,63.82,63.82,0,0,1,17,1.93,29.46,29.46,0,0,1,11,5.39,19.26,19.26,0,0,1,5.92,8.46,32.9,32.9,0,0,1,1.77,11v62.54a13.18,13.18,0,0,0,2.78,8.26,19.13,19.13,0,0,0,6.83,5.59Zm-9.61-59c-3,.93-6,2-9.21,3.17s-6.28,2.53-9.31,4a96.88,96.88,0,0,0-8.71,4.8,45.61,45.61,0,0,0-7.28,5.54,26.06,26.06,0,0,0-5,6.23,13.8,13.8,0,0,0-1.83,6.83,17.91,17.91,0,0,0,1.42,7.08,20.36,20.36,0,0,0,3.75,5.84,17.22,17.22,0,0,0,5.36,4,14.45,14.45,0,0,0,6.27,1.44,24.09,24.09,0,0,0,6.58-.89,31.63,31.63,0,0,0,6.07-2.42,61.55,61.55,0,0,0,5.87-3.52c2-1.32,3.95-2.73,6-4.25Z" transform="translate(-424 -251.88)"/><path class="cls-3" d="M891.15,457.22a23.35,23.35,0,0,0,7.69-1.23,20.39,20.39,0,0,0,6.12-3.32,15.06,15.06,0,0,0,4-4.8,12,12,0,0,0,1.41-5.59,14,14,0,0,0-2.37-8.11,24.67,24.67,0,0,0-6.28-6.19,56.91,56.91,0,0,0-8.85-5q-5-2.28-10.12-4.7t-10.12-5.15a43.07,43.07,0,0,1-8.86-6.38,29.21,29.21,0,0,1-6.27-8.47,24.91,24.91,0,0,1-2.38-11.23,24.43,24.43,0,0,1,2.63-11.23,26.84,26.84,0,0,1,7.34-8.95A35.29,35.29,0,0,1,876.27,361a45.13,45.13,0,0,1,14.17-2.13,62.85,62.85,0,0,1,9.61.69,33.54,33.54,0,0,1,8.75,2.67,36.31,36.31,0,0,1,8.56,5.7,75.18,75.18,0,0,1,9,9.64l-7.59,6.63q-5.87-9.39-13.1-14a28.27,28.27,0,0,0-15.44-4.6,29.59,29.59,0,0,0-8.09,1,20.08,20.08,0,0,0-6.22,2.87,14,14,0,0,0-4,4.3,10.12,10.12,0,0,0-1.47,5.25A12.62,12.62,0,0,0,873,387a26.31,26.31,0,0,0,6.83,6.09,63.26,63.26,0,0,0,9.67,5l11,4.65q5.61,2.37,11,5.14a50,50,0,0,1,9.66,6.39,29.06,29.06,0,0,1,6.83,8.36,22.87,22.87,0,0,1,2.58,11.08,30,30,0,0,1-2.42,12,26.1,26.1,0,0,1-7.34,9.69,36.32,36.32,0,0,1-12.3,6.49,57.15,57.15,0,0,1-17.4,2.37,65.76,65.76,0,0,1-9.36-.69,39.78,39.78,0,0,1-9.67-2.72,45.07,45.07,0,0,1-9.72-5.69,52.44,52.44,0,0,1-9.51-9.6l8.4-7.42a85.38,85.38,0,0,0,7.19,8.75,39.21,39.21,0,0,0,7,5.94,26.59,26.59,0,0,0,7.39,3.37A31.28,31.28,0,0,0,891.15,457.22Z" transform="translate(-424 -251.88)"/><text class="cls-4" transform="translate(0 210.2) scale(1.02 1)">Ideas</text><text class="cls-5" transform="translate(0 210.2) scale(1.02 1)">Ideas</text></svg>